<?xml version="1.0" ?><svg id="Layer_1" style="enable-background:new 0 0 70 70;" version="1.1" viewBox="0 0 70 70" xml:space="preserve" xmlns="http://www.w3.org/2000/svg" xmlns:xlink="http://www.w3.org/1999/xlink"><g><g><g><g><rect height="4.95" transform="matrix(0.7071 -0.7071 0.7071 0.7071 -13.6439 23.7985)" width="6.23" x="18.79" y="25.89"/></g><g><g><g><g><g><path d="M4.94,12.82l-2.16,2.16c-0.79,0.79-0.79,2.07,0,2.87l1.88,1.88l3.59-3.6L4.94,12.82z"/></g><g><rect height="4.33" transform="matrix(0.7071 -0.7071 0.7071 0.7071 -6.999 14.8336)" width="5.08" x="11.86" y="13.7"/></g><g><rect height="4.33" transform="matrix(0.7071 -0.7071 0.7071 0.7071 -12.0036 12.7593)" width="5.08" x="6.86" y="18.71"/></g><g><path d="M14.15,22.02l-3.6,3.59l1.87,1.87c0.79,0.79,2.07,0.79,2.87,0l2.16-2.16L14.15,22.02z"/></g><g><path d="M9.66,14.71l3.6-3.6l-1.87-1.87c-0.79-0.79-2.07-0.79-2.87,0l-2.16,2.16L9.66,14.71z"/></g><g><path d="M21.02,21.75c0.79-0.79,0.79-2.07,0-2.87l-1.87-1.87l-3.59,3.6l3.3,3.3L21.02,21.75z"/></g></g></g><g><g><path d="M14.33,48.83l1.49-1.49l6.99,6.99l-1.49,1.49c-1.93,1.93-5.06,1.93-6.99,0l0,0C12.4,53.89,12.4,50.76,14.33,48.83z"/></g><g><g><g><path d="M58.53,28.17c-4.66,4.66-12.2,4.65-16.85,0c-4.66-4.66-4.66-12.19,0-16.85L58.53,28.17z"/></g></g></g><g><path d="M67.81,15.88h-2c0-6.53-5.31-11.84-11.84-11.84v-2C61.6,2.04,67.81,8.25,67.81,15.88z"/></g><g><path d="M62.68,15.88h-2c0-3.7-3.01-6.7-6.7-6.7v-2C58.77,7.17,62.68,11.08,62.68,15.88z"/></g><g><circle cx="53.97" cy="15.88" r="2.57"/></g></g></g><g><rect height="4.95" transform="matrix(0.7071 -0.7071 0.7071 0.7071 -21.8771 43.6752)" width="6.23" x="38.66" y="45.77"/></g></g></g><g><g><path d="M44.82,52.7l-2.16,2.16c-0.79,0.79-0.79,2.07,0,2.87l1.88,1.88l3.59-3.6L44.82,52.7z"/></g><g><rect height="4.33" transform="matrix(0.7071 -0.7071 0.7071 0.7071 -23.5181 54.7154)" width="5.08" x="51.74" y="53.58"/></g><g><rect height="4.33" transform="matrix(0.7071 -0.7071 0.7071 0.7071 -28.5227 52.6381)" width="5.08" x="46.74" y="58.59"/></g><g><path d="M54.03,61.9l-3.6,3.59l1.87,1.87c0.79,0.79,2.07,0.79,2.87,0l2.16-2.16L54.03,61.9z"/></g><g><path d="M49.54,54.59l3.6-3.6l-1.87-1.87c-0.79-0.79-2.07-0.79-2.87,0l-2.16,2.16L49.54,54.59z"/></g><g><path d="M60.91,61.64c0.79-0.79,0.79-2.07,0-2.87l-1.87-1.87l-3.59,3.6l3.3,3.3L60.91,61.64z"/></g></g></g><g><path d="M44.19,34.3l-8.34-8.34c-1.11-1.12-2.92-1.12-4.03,0L17.15,40.63c-1.12,1.11-1.12,2.92,0,4.03L25.49,53    c1.11,1.12,2.92,1.12,4.03,0l14.67-14.67C45.31,37.22,45.31,35.41,44.19,34.3z M22.49,43.09l-1.65-1.65l10.9-10.9l1.65,1.65    L22.49,43.09z"/></g></g></svg>